<svg viewBox="0 0 122 48" xmlns="http://www.w3.org/2000/svg" font-family="&apos;BTG Pactual Sans&apos;, Moderat, sans-serif" font-size="16px" width="122" height="48" style="height: 40px; width: 102px; overflow: clip; flex-shrink: 0">
  <path fill-rule="evenodd" clip-rule="evenodd" d="M113.409 20.368H110.465L110.222 21.437H113.409C116.325 21.437 117.309 22.223 117.309 24.553V25.681C116.586 24.947 115.307 24.575 113.501 24.575C110.618 24.575 109.217 25.813 109.217 28.359V28.544C109.217 30.931 110.597 32.142 113.318 32.142H114.05C116.933 32.142 118.395 30.931 118.395 28.544V24.553C118.395 21.58 116.95 20.368 113.409 20.368ZM117.309 28.699C117.309 30.407 116.387 31.073 114.02 31.073H113.562C111.278 31.073 110.303 30.316 110.303 28.544V28.359C110.303 26.435 111.232 25.614 113.409 25.614H113.592C116.198 25.614 117.309 26.407 117.309 28.266V28.699ZM37.824 22.466L38.403 19.609H33.419V15.707L29.92 16.242V27.898C29.92 31.928 31.48 33.127 35.734 33.127H37.596L38.176 30.295H35.986C34.048 30.295 33.418 29.811 33.418 27.668V22.466H37.824ZM13.785 14.355V26.878C13.785 31.52 15.899 33.458 20.506 33.458C25.288 33.458 27.402 31.571 27.402 26.903V25.705C27.402 21.318 25.439 19.175 21.16 19.175C19.8 19.175 18.315 19.456 17.308 20.246V13.794L13.785 14.354V14.355ZM20.631 21.981C23.048 21.981 23.904 22.95 23.904 25.832V26.903C23.904 29.709 23.048 30.678 20.581 30.678C18.114 30.678 17.258 29.709 17.258 26.878V25.424C17.258 22.848 18.114 21.981 20.631 21.981H20.631ZM46.281 19.175C41.675 19.175 39.56 21.139 39.56 25.628V26.317C39.56 30.576 41.398 32.642 45.727 32.642C47.112 32.642 48.496 32.387 49.478 31.596V32.107C49.478 34.504 48.446 35.294 46.029 35.294H44.582C43.755 35.309 43.38 35.458 42.881 36.286L42.878 36.285C38.728 42.94 31.522 47.006 23.669 47.006C11.14 47.006 0.947 36.678 0.947 23.983C0.947 11.287 11.14 0.959 23.669 0.959C32.47 0.959 40.477 6.124 44.222 14.16H45.267C41.449 5.555 32.986 0 23.669 0C10.618 0 0 10.759 0 23.983C0 37.207 10.618 47.966 23.669 47.966C31.345 47.966 38.428 44.237 42.844 38.049H46.231C50.686 38.049 52.977 36.34 52.977 31.979V25.399C52.977 21.063 50.787 19.175 46.281 19.175ZM49.503 26.75C49.503 29.148 48.672 29.887 46.282 29.887C43.588 29.887 43.059 28.944 43.059 26.164V25.73C43.059 22.975 43.537 21.981 46.281 21.981C48.974 21.981 49.503 22.95 49.503 25.756V26.75ZM120.637 32.142H121.724V15.944H120.637V32.142H120.637ZM96.169 21.438L96.413 20.368H91.555V17.31L90.439 17.512V27.988C90.439 30.971 91.542 32.08 94.509 32.08H96.113L96.316 31.011H94.509C92.273 31.011 91.555 30.292 91.555 28.049V21.438H96.169L96.169 21.438ZM106.225 27.493C106.225 30.25 105.374 31.134 102.722 31.134C100.149 31.134 99.28 30.216 99.28 27.493V20.368H98.164V27.493C98.164 30.883 99.442 32.204 102.722 32.204C105.982 32.204 107.311 30.839 107.311 27.493V20.368H106.225V27.493ZM81.662 26.719V25.729C81.662 22.56 82.73 21.438 85.745 21.438H88.292L88.535 20.368H85.745C82.15 20.368 80.545 22.021 80.545 25.729V26.719C80.545 30.427 82.149 32.08 85.745 32.08H88.322L88.566 31.011H85.745C82.806 31.011 81.662 29.808 81.662 26.719H81.662ZM73.623 20.368H70.679L70.436 21.437H73.623C76.516 21.437 77.492 22.223 77.492 24.553V25.681C76.77 24.947 75.491 24.575 73.684 24.575C70.802 24.575 69.4 25.813 69.4 28.359V28.544C69.4 30.931 70.79 32.142 73.531 32.142H74.264C77.127 32.142 78.578 30.931 78.578 28.544V24.553C78.578 21.58 77.143 20.368 73.623 20.368ZM77.492 28.699C77.492 30.43 76.609 31.073 74.234 31.073H73.776C71.471 31.073 70.487 30.316 70.487 28.544V28.359C70.487 26.435 71.415 25.614 73.592 25.614H73.776C76.381 25.614 77.492 26.407 77.492 28.266V28.699ZM62.691 20.182C59.248 20.182 57.645 21.906 57.645 25.605V35.669H58.731V30.501C59.517 31.536 60.982 32.142 62.752 32.142C66.18 32.142 67.708 30.469 67.708 26.719V25.574C67.708 21.845 66.161 20.182 62.691 20.182V20.182ZM66.591 26.719C66.591 29.893 65.551 31.072 62.752 31.072C60.104 31.072 58.761 29.764 58.761 27.183V25.605C58.761 22.512 59.9 21.251 62.691 21.251C65.498 21.251 66.591 22.463 66.591 25.574V26.719Z" font-family="&apos;BTG Pactual Sans&apos;, Moderat, sans-serif" font-size="16px" fill="#001E62" style="box-sizing: border-box; transform-origin: 0px 0px" />
</svg>